<svg viewBox="0 0 140 112" fill="none" xmlns="http://www.w3.org/2000/svg">
<path d="M69.5698 46.5958C69.4528 42.4471 69.0604 39.8015 67.7312 37.5452C65.8388 34.3332 62.4338 32.5452 55.6268 28.9756L49.2977 25.6528C43.7407 22.7382 40.9623 21.2794 37.9749 21.2794C34.9876 21.2794 32.2091 22.7351 26.6521 25.6528L20.323 28.9756C13.5161 32.5452 10.111 34.3332 8.21859 37.5452C6.32935 40.754 6.32935 44.7509 6.32935 52.7414V53.1116C6.32935 61.099 6.32935 65.0958 8.21859 68.3047C10.111 71.5167 13.5161 73.3047 20.323 76.8775L26.6521 80.1971C32.2091 83.1116 34.9876 84.5705 37.9749 84.5705C40.9623 84.5705 43.7407 83.1148 49.2977 80.1971L55.6268 76.8743C62.4338 73.3015 65.8388 71.5167 67.7312 68.3047C69.0604 66.0483 69.4528 63.4028 69.5698 59.254M66.4559 38.6844L53.7977 45.0135M53.7977 45.0135L52.2154 45.8047L37.9749 52.9249M53.7977 45.0135V56.0895M53.7977 45.0135L23.7344 29.1908M37.9749 52.9249L9.4939 38.6844M37.9749 52.9249V82.9882" stroke="#08BBB9" stroke-width="4.36966" stroke-linecap="round"/>
<path d="M100 54.351C99.0887 54.351 98.35 55.0897 98.35 56.001C98.35 56.9122 99.0887 57.651 100 57.651V54.351ZM139.141 57.1677C139.786 56.5233 139.786 55.4786 139.141 54.8343L128.641 44.3337C127.997 43.6894 126.952 43.6894 126.307 44.3337C125.663 44.9781 125.663 46.0228 126.307 46.6672L135.641 56.001L126.307 65.3348C125.663 65.9792 125.663 67.0239 126.307 67.6682C126.952 68.3126 127.997 68.3126 128.641 67.6682L139.141 57.1677ZM100 57.651H137.975V54.351H100V57.651Z" fill="#08BBB9"/>
<path d="M83.1514 21.2828C82.3286 21.6746 81.9792 22.6592 82.371 23.4819C82.7628 24.3047 83.7474 24.654 84.5701 24.2622L83.1514 21.2828ZM118.644 7.50151C118.948 6.64271 118.499 5.69947 117.64 5.39473L103.645 0.428744C102.787 0.124007 101.843 0.573168 101.539 1.43197C101.234 2.29078 101.683 3.23402 102.542 3.53876L114.982 7.95297L110.568 20.393C110.263 21.2518 110.712 22.1951 111.571 22.4998C112.43 22.8045 113.373 22.3554 113.678 21.4966L118.644 7.50151ZM84.5701 24.2622L117.798 8.43946L116.379 5.46002L83.1514 21.2828L84.5701 24.2622Z" fill="#08BBB9"/>
<path d="M83.1514 90.7173C82.3286 90.3255 81.9792 89.3409 82.371 88.5181C82.7628 87.6954 83.7474 87.346 84.5701 87.7378L83.1514 90.7173ZM118.644 104.499C118.948 105.357 118.499 106.301 117.64 106.605L103.645 111.571C102.787 111.876 101.843 111.427 101.539 110.568C101.234 109.709 101.683 108.766 102.542 108.461L114.982 104.047L110.568 91.607C110.263 90.7482 110.712 89.805 111.571 89.5003C112.43 89.1955 113.373 89.6447 113.678 90.5035L118.644 104.499ZM84.5701 87.7378L117.798 103.561L116.379 106.54L83.1514 90.7173L84.5701 87.7378Z" fill="#08BBB9"/>
</svg>
