<svg viewBox="0 0 45 45" fill="none" xmlns="http://www.w3.org/2000/svg">
<path d="M22.5 29.2069L15.8644 22.5731L17.1919 21.2231L21.5625 25.5938V9.375H23.4375V25.5938L27.8062 21.225L29.1356 22.5731L22.5 29.2069ZM12.405 35.625C11.5413 35.625 10.8206 35.3363 10.2431 34.7588C9.66562 34.1812 9.37625 33.46 9.375 32.595V28.0519H11.25V32.595C11.25 32.8838 11.37 33.1488 11.61 33.39C11.85 33.6313 12.1144 33.7512 12.4031 33.75H32.5969C32.8844 33.75 33.1488 33.63 33.39 33.39C33.6313 33.15 33.7512 32.885 33.75 32.595V28.0519H35.625V32.595C35.625 33.4588 35.3363 34.1794 34.7588 34.7569C34.1812 35.3344 33.46 35.6238 32.595 35.625H12.405Z" fill="white"/>
</svg>
