<svg viewBox="0 0 114 114" fill="none" xmlns="http://www.w3.org/2000/svg">
<path d="M79.2702 59.5234L84.2506 28.38C84.4846 26.9563 84.1851 25.4962 83.4094 24.2797C82.6337 23.0631 81.4364 22.1755 80.0469 21.787L49.882 13.2109C49.1571 13.0091 48.391 13.0091 47.6661 13.2109L17.4989 21.787C16.1101 22.1795 14.9131 23.0668 14.1338 24.2814C13.3545 25.4961 13.0469 26.954 13.269 28.38L19.9736 70.1159C20.3536 72.4928 21.2352 74.7616 22.56 76.7714C23.8847 78.7813 25.6221 80.486 27.6567 81.7724L44.2651 92.1939C45.6102 93.0544 47.1737 93.5118 48.7705 93.5118C50.3673 93.5118 51.9308 93.0544 53.2759 92.1939L60.7025 87.5293" stroke="#08BBB9" stroke-width="3.5102" stroke-linecap="round" stroke-linejoin="round"/>
<path d="M80.0683 100.94C91.5193 100.94 100.802 91.6573 100.802 80.2064C100.802 68.7555 91.5193 59.4727 80.0683 59.4727C68.6174 59.4727 59.3346 68.7555 59.3346 80.2064C59.3346 91.6573 68.6174 100.94 80.0683 100.94Z" stroke="#08BBB9" stroke-width="3.5102" stroke-linecap="round" stroke-linejoin="round"/>
<path d="M69.027 79.7142L77.0165 87.7037L90.1693 72.0477" stroke="#08BBB9" stroke-width="3.5102" stroke-linecap="round" stroke-linejoin="round"/>
<path d="M63.1441 49.6664C63.0917 47.8092 62.916 46.6248 62.321 45.6147C61.4739 44.1768 59.9495 43.3764 56.9023 41.7784L54.069 40.2909C51.5813 38.9862 50.3375 38.3331 49.0001 38.3331C47.6628 38.3331 46.419 38.9847 43.9313 40.2909L41.098 41.7784C38.0507 43.3764 36.5264 44.1768 35.6792 45.6147C34.8335 47.0512 34.8335 48.8405 34.8335 52.4176V52.5833C34.8335 56.159 34.8335 57.9482 35.6792 59.3847C36.5264 60.8227 38.0507 61.6231 41.098 63.2225L43.9313 64.7086C46.419 66.0133 47.6628 66.6664 49.0001 66.6664C50.3375 66.6664 51.5813 66.0147 54.069 64.7086L56.9023 63.2211C59.9495 61.6217 61.4739 60.8227 62.321 59.3847C62.916 58.3747 63.0917 57.1903 63.1441 55.3331M61.7501 46.1247L56.0835 48.9581M56.0835 48.9581L55.3751 49.3122L49.0001 52.4997M56.0835 48.9581V53.9164M56.0835 48.9581L42.6251 41.8747M49.0001 52.4997L36.2501 46.1247M49.0001 52.4997V65.9581" stroke="#08BBB9" stroke-width="2.18361" stroke-linecap="round"/>
</svg>
