<svg viewBox="0 0 79 79" fill="none" xmlns="http://www.w3.org/2000/svg">
<path d="M59.2499 59.2502C66.5217 59.2502 72.4166 47.4603 72.4166 32.9168C72.4166 18.3733 66.5217 6.5835 59.2499 6.5835C51.9782 6.5835 46.0833 18.3733 46.0833 32.9168C46.0833 47.4603 51.9782 59.2502 59.2499 59.2502Z" stroke="#08BBB9" stroke-width="3.82258" stroke-linecap="round" stroke-linejoin="round"/>
<path d="M59.2498 6.58374C49.0358 6.58374 27.8638 14.4113 15.7043 19.2698C10.1348 21.495 6.58313 26.9197 6.58313 32.9171C6.58313 38.9145 10.1381 44.3392 15.7043 46.5643C27.8638 51.4228 49.0358 59.2504 59.2498 59.2504M36.2081 72.4171L29.8124 68.895C26.3979 67.0053 23.6282 64.1355 21.8609 60.656C20.0937 57.1766 19.4099 53.2473 19.8979 49.3754" stroke="#08BBB9" stroke-width="3.82258" stroke-linecap="round" stroke-linejoin="round"/>
</svg>
