<svg viewBox="0 0 97 98" fill="none" xmlns="http://www.w3.org/2000/svg">
<path d="M76.7917 36.8747V32.0974C76.7917 25.2549 76.7917 21.8316 75.7732 19.0994C74.9633 16.928 73.6961 14.9561 72.0573 13.3174C70.4186 11.6786 68.4467 10.4114 66.2753 9.60151C63.5431 8.58301 60.1198 8.58301 53.2773 8.58301C41.3018 8.58301 35.312 8.58301 30.5308 10.3654C26.7295 11.7821 23.2773 13.9998 20.4084 16.868C17.5395 19.7362 15.321 23.1878 13.9033 26.9888C12.125 31.77 12.125 37.7598 12.125 49.7353V60.0213C12.125 72.4292 12.125 78.6291 15.3503 82.9375C16.2741 84.1716 17.3697 85.2672 18.6038 86.1911C22.9122 89.4163 29.1121 89.4163 41.52 89.4163H58.6042" stroke="#08BBB9" stroke-width="4.5625" stroke-linecap="round" stroke-linejoin="round"/>
<path d="M44.4583 58.4289H47.8533C50.5289 58.4289 51.8667 58.4289 52.9378 59.1362C54.0128 59.8394 54.611 61.1085 55.8073 63.6426L62.2417 77.2913L71.1333 48.9997L77.5677 62.6484C78.764 65.1825 79.3622 66.4516 80.4373 67.1548C81.5123 67.8581 82.8461 67.8621 85.5217 67.8621H88.9167M12.125 48.9997C12.125 45.427 13.5442 42.0006 16.0705 39.4743C18.5968 36.948 22.0232 35.5288 25.5959 35.5288H30.0862C32.1757 35.5288 33.2185 35.5288 34.0753 35.2984C35.2179 34.9909 36.2596 34.3884 37.0959 33.5514C37.9323 32.7143 38.5339 31.6721 38.8404 30.5293C39.0708 29.6724 39.0708 28.6297 39.0708 26.5401V22.0539C39.0708 18.4812 40.49 15.0548 43.0163 12.5285C45.5426 10.0023 48.969 8.58301 52.5417 8.58301" stroke="#08BBB9" stroke-width="4.5625" stroke-linecap="round" stroke-linejoin="round"/>
</svg>
