<svg viewBox="0 0 75 74" fill="none" xmlns="http://www.w3.org/2000/svg">
<g clip-path="url(#clip0_1_52)">
<path d="M62.9375 23.125C64.5273 23.125 66.0208 23.4261 67.418 24.0283C68.8151 24.6305 70.0316 25.4616 71.0674 26.5215C72.1032 27.5814 72.9342 28.8099 73.5605 30.207C74.1869 31.6042 74.5 33.0977 74.5 34.6875C74.5 36.0605 74.2712 37.3734 73.8135 38.626C73.3558 39.8786 72.7174 40.9987 71.8984 41.9863C71.0794 42.974 70.1038 43.8291 68.9717 44.5518C67.8395 45.2744 66.599 45.7682 65.25 46.0332V49.7188C65.25 51.8626 64.985 53.9463 64.4551 55.9697C63.9251 57.9932 63.1784 59.9202 62.2148 61.751C61.2513 63.5817 60.071 65.2318 58.6738 66.7012C57.2767 68.1706 55.723 69.4593 54.0127 70.5674C52.3024 71.6755 50.4355 72.5186 48.4121 73.0967C46.3887 73.6748 44.293 73.9759 42.125 74C39.9329 74 37.8372 73.6989 35.8379 73.0967C33.8385 72.4945 31.9837 71.6514 30.2734 70.5674C28.5632 69.4834 27.0094 68.1947 25.6123 66.7012C24.2152 65.2077 23.0348 63.5576 22.0713 61.751C21.1077 59.9443 20.349 58.0293 19.7949 56.0059C19.2409 53.9824 18.9759 51.8867 19 49.7188V41.4443C16.0371 41.1794 13.4115 40.4688 11.123 39.3125C8.83464 38.1562 6.89551 36.6387 5.30566 34.7598C3.71582 32.8809 2.52344 30.7008 1.72852 28.2197C0.933594 25.7386 0.524089 23.0527 0.5 20.1621V0H12.0625C12.6888 0 13.2308 0.228841 13.6885 0.686523C14.1462 1.14421 14.375 1.6862 14.375 2.3125C14.375 2.9388 14.1462 3.48079 13.6885 3.93848C13.2308 4.39616 12.6888 4.625 12.0625 4.625H5.125V20.1621C5.125 22.7155 5.47428 25.028 6.17285 27.0996C6.87142 29.1712 7.91927 30.9417 9.31641 32.4111C10.7135 33.8805 12.3997 35.0127 14.375 35.8076C16.3503 36.6025 18.6628 37 21.3125 37C23.7454 37 25.9616 36.6266 27.9609 35.8799C29.9603 35.1331 31.6585 34.0612 33.0557 32.6641C34.4528 31.2669 35.5488 29.5807 36.3438 27.6055C37.1387 25.6302 37.5241 23.402 37.5 20.9209V4.625H30.5625C29.9362 4.625 29.3942 4.39616 28.9365 3.93848C28.4788 3.48079 28.25 2.9388 28.25 2.3125C28.25 1.6862 28.4788 1.14421 28.9365 0.686523C29.3942 0.228841 29.9362 0 30.5625 0H42.125V20.1621C42.125 23.0527 41.7155 25.7386 40.8965 28.2197C40.0775 30.7008 38.8851 32.8809 37.3193 34.7598C35.7536 36.6387 33.8265 38.1562 31.5381 39.3125C29.2497 40.4688 26.612 41.1794 23.625 41.4443V49.7188C23.625 52.2962 24.0827 54.7653 24.998 57.126C25.9134 59.4867 27.2021 61.5824 28.8643 63.4131C30.5264 65.2438 32.4775 66.6891 34.7178 67.749C36.958 68.8089 39.4271 69.3509 42.125 69.375C44.7988 69.375 47.2559 68.833 49.4961 67.749C51.7363 66.665 53.6875 65.2197 55.3496 63.4131C57.0117 61.6064 58.3005 59.5228 59.2158 57.1621C60.1312 54.8014 60.6009 52.3203 60.625 49.7188V46.0332C59.276 45.7441 58.0355 45.2503 56.9033 44.5518C55.7712 43.8532 54.7956 43.0101 53.9766 42.0225C53.1576 41.0348 52.5192 39.9027 52.0615 38.626C51.6038 37.3493 51.375 36.0365 51.375 34.6875C51.375 33.0977 51.6761 31.6042 52.2783 30.207C52.8805 28.8099 53.6995 27.5934 54.7354 26.5576C55.7712 25.5218 56.9997 24.6908 58.4209 24.0645C59.8421 23.4382 61.3477 23.125 62.9375 23.125ZM62.9375 41.625C63.901 41.625 64.8044 41.4443 65.6475 41.083C66.4906 40.7217 67.2253 40.2279 67.8516 39.6016C68.4779 38.9753 68.9717 38.2406 69.333 37.3975C69.6943 36.5544 69.875 35.651 69.875 34.6875C69.875 33.724 69.6943 32.8206 69.333 31.9775C68.9717 31.1344 68.4779 30.3997 67.8516 29.7734C67.2253 29.1471 66.4906 28.6533 65.6475 28.292C64.8044 27.9307 63.901 27.75 62.9375 27.75C61.974 27.75 61.0706 27.9307 60.2275 28.292C59.3844 28.6533 58.6497 29.1471 58.0234 29.7734C57.3971 30.3997 56.9033 31.1344 56.542 31.9775C56.1807 32.8206 56 33.724 56 34.6875C56 35.651 56.1807 36.5544 56.542 37.3975C56.9033 38.2406 57.3971 38.9753 58.0234 39.6016C58.6497 40.2279 59.3844 40.7217 60.2275 41.083C61.0706 41.4443 61.974 41.625 62.9375 41.625Z" fill="#08BBB9"/>
</g>
<defs>
<clipPath id="clip0_1_52">
<rect width="74" height="74" fill="white" transform="translate(0.5)"/>
</clipPath>
</defs>
</svg>
