<svg version="1.2" xmlns="http://www.w3.org/2000/svg" viewBox="0 0 505 160">
	<title>LTMed</title>
	<style>
		.s0 { fill: #32c4c9 } 
		.s1 { fill: #85878b } 
	</style>
	<path id="Path 1" class="s0" d="m158.9 158c0.2-2.9 0.9-20.6 0.5-22.4-0.2-1.2 1.1-1.6-3.9-1.5-26.3 0.2-83.3 2.5-107.6-1.7-19.9-3.5-28-23.9-23.4-41.9 5.3-20.7 24-23.2 44.9-23.3 7.7-0.1 15.3 0.3 23 0.3 9.1 0 13.4 0.2 18.1-5 4-4.4 2.4-14-2.1-17-3.8-2.6-14.7-1.9-20-1.9-27.3-0.1-54.1-3.4-73.3 18.2-27.2 30.5-15.2 74 16.9 90.1 11 5.5 24.5 6.6 38.1 7.1 21.9 0.8 67.9 1.1 88.8-1zm-101.8-126.4c13.1 1.2 22.5 1.4 33.4-3.9 10.2-5 21.5-5.1 30.5 0.7 17.3 11 14.3 36.3 13.8 60.4-16 0-32.1 0-48.2-0.1-15.9-0.1-30.1 0.4-42.3 6.2l0.2 13.3c16.3 9.5 90.8 4.8 114.1 4.2-0.5-37.2 6.7-85.1-20.4-102.6-20.8-13.5-50.4-13.7-69.4 3.5-3.2 2.9-11.4 12-11.7 18.3z"/>
	<path id="Path 2" fill-rule="evenodd" class="s1" d="m226.1 95h31.9v13h-46.7v-69.5h14.8zm82.1-56.4v13h-22.1v56.5h-14.8v-56.5h-22.2v-13zm84.2 0v69.5h-14.8v-43.2q-1.4 4-4.7 10.4l-12.1 24.2h-11.7l-12.3-24.2q-3.4-6.5-4.8-10.4v43.2h-14.8v-69.5h15.7l15.9 30.5q1.8 3.5 3.4 7.2 1.6 3.7 2.6 6.5 1.5-4.9 6-13.7l16.2-30.5zm56.9 41q0 2.1-0.4 7.5h-30.9q0.6 6 4 8.9 3.3 2.8 7.9 2.8 3.4 0 6.7-1 3.2-0.9 6.8-3.1l4.9 8.8q-3.8 2.9-8.9 4.5-5 1.6-10.9 1.6-7.1 0-12.7-2.5-5.6-2.6-9-8.2-3.4-5.7-3.4-14.6 0-8.1 2.9-14 2.8-5.9 8.2-9 5.4-3 12.8-3 7.1 0 12.1 2.8 5 2.7 7.4 7.6 2.5 4.8 2.5 10.9zm-22-11.5q-3.6 0-5.8 2.3-2.2 2.3-3.1 7.3h16.4v-0.3q0-5-2-7.1-2.1-2.2-5.5-2.2zm77.1-35.1v75.1h-12.3l-1.1-3.3q-7.1 4.8-14.6 4.8-10 0-15.1-6.2-5.1-6.3-5.1-18.3 0-9.5 3.6-15.5 3.7-6 9.4-8.7 5.8-2.6 12.3-2.6 3.9 0 8.5 1.1v-25.1zm-33.3 52.1q0 7 2.3 10.4 2.2 3.3 6.8 3.3 2.5 0 4.8-0.8 2.4-0.7 4.9-2.2v-26.4q-3.4-0.7-6.3-0.7-5.7 0-9.1 4.2-3.4 4.2-3.4 12.2z"/>
</svg>